# xmcd
#
# Track frame offsets:
#	150
#	12100
#	20538
#	31500
#	43450
#	53100
#	63775
#	75425
#	86700
#	96750
#	108963
#	118375
#	127925
#	137313
#	148975
#	161688
#	172463
#	187675
#	199575
#	212250
#	225138
#	234950
#	246475
#	257750
#
# Disc length: 3563 seconds
#
# Revision: 1
# Processed by: cddbd v1.5.1PL0 Copyright (c) Steve Scherf et al.
# Submitted via: EasyCDDAExtractor 7.0.9.1
#
DISCID=370de918
DTITLE=Platters - All The Hits and More
DYEAR=1995
DGENRE=Oldies
TTITLE0=With This Ring
TTITLE1=Sweet, Sweet Lovin'
TTITLE2=Sonata
TTITLE3=How Beautiful Our Love Is
TTITLE4=Love Must Go On
TTITLE5=I Can't Get Used To Sharing You
TTITLE6=Why Do You Wanna Make Me Blue
TTITLE7=Going Back To Detroit
TTITLE8=Run While It's Dark
TTITLE9=Get A Hold Of Yourself
TTITLE10=Shing-A-Ling-A-Loo
TTITLE11=Doesn't It Ring A Bell
TTITLE12=Baby, Baby
TTITLE13=Think Before You Walk Away
TTITLE14=So Many Tears
TTITLE15=Hard To Get A Thing Called Love
TTITLE16=Why
TTITLE17=Fear Of Losing You
TTITLE18=Pledging My Love
TTITLE19=If I Had You
TTITLE20=Crying In The Chapel
TTITLE21=I Love You Yes I Do
TTITLE22=All My Love (Belongs To You)
TTITLE23=The More I See You
EXTD=
EXTT0=
EXTT1=
EXTT2=
EXTT3=
EXTT4=
EXTT5=
EXTT6=
EXTT7=
EXTT8=
EXTT9=
EXTT10=
EXTT11=
EXTT12=
EXTT13=
EXTT14=
EXTT15=
EXTT16=
EXTT17=
EXTT18=
EXTT19=
EXTT20=
EXTT21=
EXTT22=
EXTT23=
PLAYORDER=
